<?xml version="1.0" encoding="UTF-8" standalone="no"?>
<!-- Created with Inkscape (http://www.inkscape.org/) -->
<svg
   xmlns:svg="http://www.w3.org/2000/svg"
   xmlns="http://www.w3.org/2000/svg"
   version="1.0"
   width="125"
   height="28"
   id="svg12952">
  <defs
     id="defs12954">
    <clipPath
       id="clip1">
      <path
         d="M 55.414062,945.48438 L 155.10156,945.48438 L 155.10156,967.5 L 55.414062,967.5 L 55.414062,945.48438 z"
         id="path4430" />
    </clipPath>
    <clipPath
       id="clip2">
      <path
         d="M 55.414062,945.48438 L 155.10156,945.48438 L 155.10156,967.5 L 55.414062,967.5 L 55.414062,945.48438 z"
         id="path4433" />
    </clipPath>
  </defs>
  <g
     transform="translate(-191.98103,-135.74283)"
     id="layer1">
    <path
       d="M 252.42536,155.84537 L 261.83455,155.84537 L 261.83455,153.6237 L 254.64216,153.6237 L 254.64216,135.74283 L 252.42536,135.74283 L 252.42536,155.84537"
       id="path4445"
       style="fill:#8f0026;fill-opacity:1;fill-rule:nonzero;stroke:none" />
    <g
       transform="matrix(1.25,0,0,1.25,122.71345,-1046.1029)"
       clip-path="url(#clip1)"
       id="g4447">
      <path
         d="M 75.9375,945.55078 C 72.046875,945.55078 67.4375,949.10938 65.296875,957.21094 C 63.964844,960.6875 60.582031,966.63281 55.414062,967.42969 L 80.152344,967.4375 L 81.765625,964.42188 L 76.75,964.42188 C 75.09375,964.29297 68.195312,962.69141 71.085938,954.54688 C 74.554688,944.76562 76.476562,945.55078 75.9375,945.55078"
         id="path4449"
         style="fill:#8f0026;fill-opacity:1;fill-rule:nonzero;stroke:none" />
      <path
         d="M 81.882812,967.42578 C 85.777344,967.42578 90.386719,963.86719 92.523438,955.76172 C 93.859375,952.28906 97.242188,946.34766 102.40625,945.54688 L 77.671875,945.54297 L 76.050781,948.55469 L 81.070312,948.55469 C 82.730469,948.6875 89.628906,950.28906 86.738281,958.43359 C 83.261719,968.21094 81.347656,967.42578 81.882812,967.42578"
         id="path4451"
         style="fill:#8f0026;fill-opacity:1;fill-rule:nonzero;stroke:none" />
    </g>
    <path
       d="M 263.42634,155.84537 L 265.64314,155.84537 L 265.64314,135.75261 L 263.42634,135.75261 L 263.42634,155.84537 z"
       id="path4453"
       style="fill:#8f0026;fill-opacity:1;fill-rule:nonzero;stroke:none" />
    <path
       d="M 268.524,135.75748 C 271.63435,135.75748 274.54939,137.87175 276.61481,139.51725 L 276.61481,135.74283 L 278.82673,135.74283 L 278.82673,155.84537 L 276.61481,155.84537 L 276.61481,142.25651 C 274.96443,140.97721 272.23494,138.66276 269.63728,138.06706 L 269.63728,155.84537 L 267.42048,155.84537 L 267.42048,135.74283 L 268.524,135.75748"
       id="path4455"
       style="fill:#8f0026;fill-opacity:1;fill-rule:nonzero;stroke:none" />
    <path
       d="M 255.46735,157.33463 L 258.09431,157.33463 L 258.09431,156.76823 L 252.26423,156.76823 L 252.26423,157.33463 L 254.89606,157.33463 L 254.89606,163.26237 L 255.46735,163.26237 L 255.46735,157.33463"
       id="path4457"
       style="fill:#8f0026;fill-opacity:1;fill-rule:nonzero;stroke:none" />
    <path
       d="M 259.2906,156.76823 L 259.2906,163.26237 L 264.42244,163.26237 L 264.42244,162.69108 L 259.86189,162.69108 L 259.86189,160.1862 L 264.04646,160.1862 L 264.04646,159.61491 L 259.86189,159.61491 L 259.86189,157.33463 L 264.23689,157.33463 L 264.23689,156.76823 L 259.2906,156.76823"
       id="path4459"
       style="fill:#8f0026;fill-opacity:1;fill-rule:nonzero;stroke:none" />
    <path
       d="M 273.08455,159.61491 L 277.59138,159.61491 L 277.59138,156.76823 L 278.15779,156.76823 L 278.15779,163.26237 L 277.59138,163.26237 L 277.59138,160.1862 L 273.08455,160.1862 L 273.08455,163.26237 L 272.51814,163.26237 L 272.51814,156.76823 L 273.08455,156.76823 L 273.08455,159.61491"
       id="path4461"
       style="fill:#8f0026;fill-opacity:1;fill-rule:nonzero;stroke:none" />
    <path
       d="M 279.94001,156.77311 L 284.35408,162.38346 L 284.35408,156.76823 L 284.93025,156.76823 L 284.93025,163.26237 L 284.35408,163.26725 L 279.86189,157.53971 L 279.86189,163.26237 L 279.29548,163.26237 L 279.29548,156.76823 L 279.94001,156.77311"
       id="path4463"
       style="fill:#8f0026;fill-opacity:1;fill-rule:nonzero;stroke:none" />
    <path
       d="M 293.64119,162.69108 L 293.64119,156.76823 L 293.0699,156.76823 L 293.0699,163.26237 L 297.79158,163.26237 L 297.79158,162.69108 L 293.64119,162.69108"
       id="path4465"
       style="fill:#8f0026;fill-opacity:1;fill-rule:nonzero;stroke:none" />
    <path
       d="M 316.53181,156.75846 L 313.79744,160.56217 L 313.80231,163.26237 L 313.23591,163.26237 L 313.23103,160.53776 L 310.50154,156.75846 L 311.1656,156.75846 L 313.51423,160.02506 L 315.86775,156.75846 L 316.53181,156.75846"
       id="path4467"
       style="fill:#8f0026;fill-opacity:1;fill-rule:nonzero;stroke:none" />
    <g
       transform="matrix(1.25,0,0,1.25,122.71345,-1046.1029)"
       clip-path="url(#clip2)"
       id="g4469">
      <path
         d="M 147.47656,945.47656 C 155.73828,945.35547 157.32812,956.0625 149.14062,958.12891 C 151.77734,959.67188 153.14062,959.78125 155.10156,959.78125 L 155.10156,961.55859 C 152.55859,961.55859 151.10156,961.48828 147.21094,958.92188 L 147.21094,956.68359 L 147.79688,956.68359 C 154.80859,955.58594 153.90234,947.35156 147.79688,947.24219 L 147.79688,961.55859 L 144.62891,961.55469 L 141.73828,951.25781 L 137.01562,951.25781 L 137.01562,949.48438 L 141.25,949.48438 L 140.62109,947.25 L 136.60938,961.5625 L 133.21094,961.55859 C 129.83594,961.55859 127.10156,958.79297 127.10156,955.42188 L 127.10156,951.25781 L 125.90625,951.25781 L 125.90625,949.48438 L 127.10156,949.48438 L 127.10156,945.47656 L 135.03906,945.47656 L 135.03906,947.25 L 128.875,947.25 L 128.875,949.48438 L 135.01562,949.48438 L 135.01562,951.25781 L 128.87109,951.25781 L 128.875,955.42969 C 128.875,957.82812 130.81641,959.78125 133.21094,959.78125 L 134.80859,959.78125 L 134.8125,961.48047 L 139.29297,945.47656 L 141.94922,945.47656 L 146.01953,960.00781 L 146.01953,945.47656 L 147.47656,945.47656"
         id="path4471"
         style="fill:#8f0026;fill-opacity:1;fill-rule:nonzero;stroke:none" />
    </g>
    <path
       d="M 286.39021,159.99088 C 286.39021,158.49675 287.39119,157.29068 288.97321,157.29068 C 290.56013,157.29068 291.5611,158.49675 291.5611,159.99088 C 291.5611,161.47526 290.56013,162.6862 288.97321,162.6862 C 287.39119,162.6862 286.39021,161.48502 286.39021,159.99577 L 285.8238,159.99577 C 285.8238,161.778 287.0738,163.21842 288.97321,163.21842 C 290.87263,163.21842 292.12751,161.76823 292.12751,159.99088 C 292.12751,158.20377 290.87263,156.75358 288.97321,156.75358 C 287.0738,156.75358 285.8238,158.20377 285.8238,159.99088"
       id="path4473"
       style="fill:#8f0026;fill-opacity:1;fill-rule:nonzero;stroke:none" />
    <path
       d="M 298.09431,159.99088 C 298.09431,158.49675 299.0904,157.29068 300.67244,157.29068 C 302.25935,157.29068 303.26033,158.49675 303.26033,159.99088 C 303.26033,161.47526 302.25935,162.6862 300.67244,162.6862 C 299.0904,162.6862 298.09431,161.48502 298.09431,159.99577 L 297.52303,159.99577 C 297.52303,161.778 298.78279,163.21842 300.67244,163.21842 C 302.57185,163.21842 303.82673,161.76823 303.82673,159.99088 C 303.82673,158.20377 302.57185,156.75358 300.67244,156.75358 C 298.78279,156.75358 297.52303,158.20377 297.52303,159.99088"
       id="path4475"
       style="fill:#8f0026;fill-opacity:1;fill-rule:nonzero;stroke:none" />
    <path
       d="M 304.62751,159.99088 C 304.62751,161.778 305.88728,163.21842 307.78181,163.21842 C 308.92439,163.21842 309.83259,162.69596 310.37946,161.88541 L 310.37946,163.22818 L 310.94588,163.22818 L 310.94588,159.99577 L 308.15779,159.99577 L 308.15779,160.56706 L 310.31599,160.56706 C 310.09138,161.78287 309.15876,162.6862 307.78181,162.6862 C 306.19978,162.6862 305.19393,161.48502 305.19393,159.99088 C 305.19393,158.49675 306.19978,157.29068 307.78181,157.29068 C 308.92439,157.29068 309.76423,157.92057 310.14021,158.82877 L 310.74568,158.8239 C 310.32088,157.61296 309.24178,156.75358 307.78181,156.75358 C 305.88728,156.75358 304.62751,158.20377 304.62751,159.99088"
       id="path4477"
       style="fill:#8f0026;fill-opacity:1;fill-rule:nonzero;stroke:none" />
    <path
       d="M 270.81893,160.94791 C 270.47713,161.95377 269.60798,162.6862 268.39216,162.6862 C 266.81013,162.6862 265.80915,161.48502 265.80915,159.99088 C 265.80915,158.49675 266.81013,157.29068 268.39216,157.29068 C 269.6861,157.29068 270.59431,158.09636 270.8824,159.20963 L 271.46345,159.20963 C 271.15584,157.7985 270.00349,156.75358 268.39216,156.75358 C 266.49275,156.75358 265.24275,158.20377 265.24275,159.99088 C 265.24275,161.778 266.49275,163.21842 268.39216,163.21842 C 269.93513,163.21842 271.0533,162.26627 271.4195,160.94791 L 270.81893,160.94791"
       id="path4479"
       style="fill:#8f0026;fill-opacity:1;fill-rule:nonzero;stroke:none" />
  </g>
</svg>
